<?xml version="1.0" encoding="utf-8"?>
<!-- Generator: Adobe Illustrator 21.1.0, SVG Export Plug-In . SVG Version: 6.00 Build 0)  -->
<svg version="1.1" id="Ubisoft_Mark" xmlns="http://www.w3.org/2000/svg" xmlns:xlink="http://www.w3.org/1999/xlink" x="0px"
	 y="0px" viewBox="0 0 861.5 278" style="enable-background:new 0 0 861.5 278;" xml:space="preserve" >
<style type="text/css">
	.swirlcolor{fill:#FFFFFF;}
</style>
<title>ubilogo</title>
<path id="SWIRL" class="swirlcolor" d="M267.9,138.8C265-3.5,75.5-56.6,2.6,76.8c3.2,2.3,7.7,5.5,10.9,7.8c-8.8,18.6-13.4,39-13.5,59.6
	C0,218.1,60,278,134,278s134-59.9,134-133.8C268,142.4,268,140.6,267.9,138.8z M33.1,162.7c-1.8,14.5-0.7,19-0.7,20.7l-3.2,1.2
	c-1.2-2.4-4.3-10.8-5.7-22.1C20,119.5,49.4,80.7,94.2,73.4c41.1-6,80.3,19.4,89.5,55.1l-3.2,1.2c-2.7-3.6-5.7-7-8.9-10.2
	C122.1,69.8,44.2,92.6,33.1,162.7L33.1,162.7z M160.6,186.8c-11.5,16.6-34.2,20.8-50.8,9.3c-16.6-11.5-20.8-34.2-9.3-50.8
	c6.3-9.1,16.4-14.9,27.4-15.7l0,0c16.4-0.9,30.3,11.7,31.2,28.1c0.4,8.3-2.6,16.3-8.4,22.3L160.6,186.8z M236.8,188.3
	c-19.3,43.8-59.1,66.7-101.6,66.2c-81.5-4-105.2-98-50.7-131.9l2.4,2.4c-0.9,1.2-4.1,3.8-9.2,13.7c-5.9,12.1-7.7,24.1-7,31.7
	c4.2,65.7,96.3,79.1,128,14.1C239,95.4,132,4.9,37,74l-2.2-2.2c25-39.1,73.8-56.7,120.4-45C226.5,44.7,264.8,118.9,236.8,188.3
	L236.8,188.3z"/>
<path id="UBISOFT" class="swirlcolor" d="M386.7,86.6v61.8c0,24.6-15,43-42.6,43s-42.6-18.4-42.6-43V86.6h22.4v60c0,15,7.1,23.5,20.2,23.5
	c13.1,0,20.2-8.5,20.2-23.5v-60H386.7z M469.9,159.9c0,17.8-14,30.6-36.5,30.6h-35.6v-103h34.3c19.9,0,33,9.6,33,24.9
	c0,11.6-5.5,18.7-13.6,22.1C462.4,138.6,469.9,146.1,469.9,159.9z M420.1,107.2V129h11.8c6.9,0,11.6-4,11.6-10.9
	s-4.7-10.9-11.6-10.9H420.1z M432.5,170.8c9.6,0,15-4.4,15-12.9s-5.5-12.9-15-12.9h-12.4v25.9H432.5z M478.6,87.5H501v103h-22.4
	V87.5z M555.1,129.1c17.7,6.2,26.8,14.1,26.8,30c0,21.3-16.3,33.1-35.6,33.1c-17.8,0-31.5-7.9-37.3-22.7l17.8-13.2
	c3.2,9.3,11.6,15,20,15c7.4,0,12.7-4,12.7-10.6c0-6.2-4-10-18.7-15.3c-15.9-5.7-27.7-13.7-27.7-30.7c0-16.5,13.7-29,33.6-29
	c15.8,0,28,6.3,33.7,18.8l-17.8,12.4c-3.4-7.6-8.7-11.9-16.8-11.9c-6.8,0-11.8,3.7-11.8,9C534,120,539.6,123.7,555.1,129.1
	L555.1,129.1z M693,139c0,30.3-21.8,53.2-52.4,53.2c-31.4,0-52.4-22.5-52.4-49.7c0-17.7,6.9-30.4,17.1-38.8l-3.5-3.5
	c7.8-8.1,22.1-14.4,38.9-14.4C671.2,85.8,693,109,693,139L693,139z M670.3,139c0-18.5-11.8-32.1-29.8-32.1c-10.5,0-18.3,4-23,9.1
	l3.5,3.5c-5.5,4.6-10.3,10.9-10.3,22.2c0,15.6,11,29.3,29.8,29.3C658.5,171.1,670.3,157.5,670.3,139L670.3,139z M724.5,108.7v23.8
	h43.7v17.1h-43.7v40.9h-22.4v-103h70.6v21.2L724.5,108.7z M861.5,108.7h-28.9v81.8h-22.4v-81.8h-29V87.5h80.3L861.5,108.7z"/>
</svg>
