<?xml version="1.0" encoding="utf-8"?>
<!-- Generator: Adobe Illustrator 21.1.0, SVG Export Plug-In . SVG Version: 6.00 Build 0)  -->
<svg version="1.1" id="Layer_1" xmlns="http://www.w3.org/2000/svg" xmlns:xlink="http://www.w3.org/1999/xlink" x="0px" y="0px"
	 viewBox="0 0 300 300" style="enable-background:new 0 0 300 300;" xml:space="preserve">
<path id="SWIRL" d="M283.9,149.88C281,7.48,91.5-45.62,18.6,87.88c3.2,2.3,7.7,5.5,10.9,7.8c-5.6,11.7-9.3,23.6-11.3,35.5
	c-1.4,7.8-2.2,15.8-2.2,24c0,73.9,60,133.8,134,133.8s134-59.9,134-133.8C284,153.48,283.9,151.68,283.9,149.88z M49,173.78
	c-1.8,14.5-0.7,19-0.7,20.7l-3.2,1.2c-1.2-2.4-4.3-10.8-5.7-22.1c-3.5-43.1,25.9-81.9,70.7-89.1c41.1-6,80.3,19.4,89.5,55.1
	l-3.2,1.2c-1-1.1-2.7-3.9-8.9-10.2C138,80.88,60.2,103.68,49,173.78z M176.6,197.88c-6.6,9.5-17.6,15.7-30,15.7
	c-20.2,0-36.5-16.3-36.5-36.5c0-19.3,14.9-35,33.9-36.4l0,0c11.8-0.5,22.8,5.9,28,16.2c5.6,11.1,3.6,24.9-5.2,34.1
	C170,193.38,173.3,195.68,176.6,197.88z M252.8,199.38c-19.4,43.8-59.2,66.7-101.6,66.2c-81.5-4-105.2-98-50.7-131.9l2.4,2.4
	c-0.9,1.2-4.1,3.8-9.2,13.7c-5.9,12.1-7.7,24.1-7,31.7c4.2,65.7,96.3,79.1,128,14.1c40.4-89.1-66.6-179.6-161.6-110.4l-2.2-2.2
	c25-39.1,73.8-56.7,120.4-45C242.5,55.78,280.8,129.98,252.8,199.38z"/>
</svg>
